<svg width="725" height="618" viewBox="0 0 725 618" fill="none" xmlns="http://www.w3.org/2000/svg" opacity="0.3">
<path d="M149.769 171.022C142.878 171.022 141.308 180.023 141.308 188.165C141.308 194.672 143.887 200.319 149.769 200.319C172.345 200.319 198.224 195.424 198.224 188.165C198.224 180.776 171.336 171.022 149.769 171.022Z" fill="white" stroke="#54A8FC" stroke-width="1.51207"/>
<path d="M511.185 21.0277C534.818 28.9071 529.84 65.4624 549.513 65.4624C570.528 65.4624 567.111 29.5159 592.562 21.0277C633.735 7.29857 637.666 21.0277 682.761 21.0277C749.385 21.0277 749.385 21.0277 816.009 21.0277C882.633 21.0277 882.633 21.0277 949.257 21.0277C999.482 21.0277 1017.39 -9.84497 1049.71 21.0277C1084.02 53.8225 1064.46 148.375 1082.51 148.375C1100.97 148.375 1086.75 55.4103 1122.73 21.0277C1153.37 -8.25716 1169.24 21.0277 1215.75 21.0277C1262.27 21.0277 1265.66 8.49241 1308.78 21.0277C1332.29 27.8684 1330.42 59.7797 1349 59.7797C1364.03 59.7797 1357.42 26.4239 1375.98 21.0277C1424.05 7.04786 1458.67 -16.0529 1482.25 21.0277C1511.81 67.5158 1482.25 104.596 1482.25 188.165C1482.25 251.57 1488.38 253.432 1482.25 314.963C1480.05 337.001 1465.59 337.312 1465.59 355.303C1465.59 365.964 1480.98 359.565 1482.25 372.255C1489.31 443.134 1482.25 447.348 1482.25 522.44C1482.25 606.009 1515.56 647.793 1482.25 689.578C1448.94 731.362 1415.63 689.578 1349 689.578C1282.38 689.578 1282.38 689.578 1215.75 689.578C1176.06 689.578 1171.45 705.062 1136.38 689.578C1104.82 675.658 1106.88 630.769 1082.51 630.769C1062.6 630.769 1072.59 678.642 1047.82 689.578C1005.96 708.047 998.54 689.578 949.257 689.578C882.633 689.578 882.633 689.578 816.009 689.578C804.912 689.578 804.674 692.192 793.804 689.578C738.05 676.123 736.241 657.44 682.761 657.44C659.462 657.44 663.802 683.895 640.236 689.578C597.178 699.964 594.875 689.578 549.513 689.578C482.889 689.578 482.889 689.578 416.265 689.578C349.641 689.578 349.641 689.578 283.017 689.578C216.393 689.578 216.393 689.578 149.769 689.578C123.12 689.578 108.51 712.953 96.47 689.578C65.4803 629.384 91.2828 597.282 63.71 522.44C51.3084 488.798 25.8961 505.81 16.5212 472.597C2.30169 422.241 16.5212 413.956 16.5212 355.303C16.5212 271.734 16.5212 271.734 16.5212 188.165C16.5212 104.596 -16.7908 62.8121 16.5212 21.0277C49.8332 -20.7567 83.1452 21.0277 149.769 21.0277C216.393 21.0277 216.393 21.0277 283.017 21.0277C349.641 21.0277 349.641 21.0277 416.265 21.0277C463.73 21.0277 468.194 6.68971 511.185 21.0277Z" fill="white" stroke="#54A8FC" stroke-width="1.51207"/>
<path d="M682.761 350.599C680.657 350.599 678.602 352.891 678.602 355.303C678.602 357.822 680.657 360.448 682.761 360.448C684.921 360.448 687.129 357.81 687.129 355.303C687.129 352.891 684.921 350.599 682.761 350.599Z" fill="white" stroke="#54A8FC" stroke-width="1.51207"/>
<path d="M16.5212 84.8386C37.0319 84.8386 52.4791 136.496 88.4371 188.165C119.103 232.23 109.766 260.429 149.769 276.295C207.056 299.002 227.234 293.796 283.017 265.311C313.512 249.732 322.335 223.957 322.335 188.165C322.335 161.125 306.64 156.648 283.017 139.636C220.362 94.5087 213.833 107.008 149.769 63.8867C125.718 47.6982 106.787 33.0498 106.787 21.0278C106.787 11.6204 128.278 21.0278 149.769 21.0278C216.393 21.0278 216.393 21.0278 283.017 21.0278C349.641 21.0278 349.641 21.0278 416.265 21.0278C440.907 21.0278 445.475 6.36749 465.548 21.0278C512.099 55.0284 506.417 118.35 549.513 118.35C595.55 118.35 593.304 57.9175 643.815 21.0278C659.928 9.25659 663.288 21.0278 682.761 21.0278C749.385 21.0278 749.385 21.0278 816.009 21.0278C882.633 21.0278 882.633 21.0278 949.257 21.0278C973.86 21.0278 998.454 1.00715 998.454 21.0278C998.454 70.1663 991.088 142.238 949.257 159.346C899.86 179.546 873.23 86.892 816.009 95.6428C779.071 101.302 760.93 143.158 760.93 188.165C760.93 229.281 782.83 236.647 816.009 267.878C871.593 320.216 932.002 296.363 938.455 355.303C945.945 423.65 891.285 438.967 843.896 522.441C830.067 546.807 836.948 560.393 816.009 570.97C756.381 601.103 745.207 573.847 682.761 603.872C621.886 633.145 627.301 652.306 569.358 689.578C560.677 695.165 559.431 689.578 549.513 689.578C482.889 689.578 482.889 689.578 416.265 689.578C349.641 689.578 349.641 689.578 283.017 689.578C258.595 689.578 252.18 706.746 234.163 689.578C185.556 643.233 189.439 628.179 149.769 562.554C138.919 544.61 145.857 538.056 133.113 522.441C79.2334 456.421 63.9194 467.225 16.5212 399.284C5.62342 383.657 16.5212 377.294 16.5212 355.303C16.5212 271.734 16.5212 271.734 16.5212 188.165C16.5212 136.496 1.07396 84.8386 16.5212 84.8386Z" fill="white" stroke="#54A8FC" stroke-width="1.51207"/>
<path d="M682.761 291.743C654.351 291.743 626.55 322.747 626.55 355.303C626.55 389.244 654.322 424.725 682.761 424.725C711.924 424.725 741.743 389.208 741.743 355.303C741.743 322.711 711.952 291.743 682.761 291.743Z" fill="white" stroke="#54A8FC" stroke-width="1.51207"/>
<path d="M16.5216 160.814C21.9467 160.814 35.5571 171.917 35.5571 188.165C35.5571 225.174 21.3852 267.341 16.5216 267.341C11.8675 267.341 16.5216 227.753 16.5216 188.165C16.5216 174.496 12.429 160.814 16.5216 160.814Z" fill="white" stroke="#54A8FC" stroke-width="1.51207"/>
<path d="M283.017 72.2434C250.019 39.4963 208.55 34.6732 208.55 21.0276C208.55 9.06535 245.784 21.0276 283.017 21.0276C349.641 21.0276 349.641 21.0276 416.265 21.0276C418.092 21.0276 418.568 19.4995 419.92 21.0276C485.192 94.604 480.5 160.707 549.513 171.237C611.921 180.763 632.726 56.0668 682.761 61.1407C716.235 64.5312 716.52 129.345 716.52 188.165C716.52 215.218 700.654 211.827 682.761 232.886C629.643 295.396 619.782 286.43 574.497 355.303C553.158 387.751 565.912 398.03 549.513 435.529C529.364 481.599 516.629 474.03 501.391 522.44C476.655 601.055 500.202 629.42 469.564 689.578C457.638 712.989 442.915 689.578 416.265 689.578C385.513 689.578 377.633 709.658 354.761 689.578C311.009 651.16 319.156 630.817 283.017 572.582C267.294 547.248 251.037 550.484 251.037 522.44C251.037 475.272 250.857 447.097 283.017 422.158C333.47 383.036 352.515 417.681 416.265 394.306C443.685 384.253 465.357 376.123 465.357 355.303C465.357 333.217 432.75 339.664 416.265 308.504C388.549 256.095 406.281 240.181 376.947 188.165C339.657 122.05 334.213 123.065 283.017 72.2434Z" fill="white" stroke="#54A8FC" stroke-width="1.51207"/>
<path d="M137.653 355.303C137.653 352.617 143.649 352.258 149.769 352.258C163.028 352.258 176.419 352.485 176.419 355.303C176.419 358.192 162.666 363.66 149.769 363.66C143.278 363.66 137.653 358.311 137.653 355.303Z" fill="white" stroke="#54A8FC" stroke-width="1.51207"/>
<path d="M616.137 522.44C616.137 506.956 649.706 489.013 682.761 489.013C712.885 489.013 742.494 506.92 742.494 522.44C742.494 537.566 712.818 550.293 682.761 550.293C649.64 550.293 616.137 537.59 616.137 522.44Z" fill="white" stroke="#54A8FC" stroke-width="1.51207"/>
</svg>
